<svg width="192" height="43" viewBox="0 0 192 43" fill="none" xmlns="http://www.w3.org/2000/svg">
    <path d="M9.32 42.384C6.344 42.384 4.12 41.344 2.648 39.264C1.208 37.152 0.488 33.968 0.488 29.712V11.952C0.488 8.144 1.336 5.264 3.032 3.312C4.728 1.36 7.256 0.383998 10.616 0.383998C13.336 0.383998 15.448 0.927998 16.952 2.016C18.456 3.104 19.496 4.688 20.072 6.768C20.648 8.848 20.936 11.52 20.936 14.784H12.872V11.088C12.872 10.096 12.728 9.328 12.44 8.784C12.184 8.24 11.704 7.968 11 7.968C9.432 7.968 8.648 8.992 8.648 11.04V31.008C8.648 32.256 8.808 33.2 9.128 33.84C9.448 34.48 10.008 34.8 10.808 34.8C11.608 34.8 12.168 34.48 12.488 33.84C12.808 33.2 12.968 32.256 12.968 31.008V25.104H10.76V18H20.84V42H17.528L16.136 38.544C14.664 41.104 12.392 42.384 9.32 42.384ZM26.5209 0.767999H39.1929C41.2089 0.767999 42.7609 1.232 43.8489 2.16C44.9689 3.056 45.7209 4.336 46.1049 6C46.4889 7.632 46.6809 9.728 46.6809 12.288C46.6809 14.624 46.3769 16.448 45.7689 17.76C45.1609 19.072 44.1049 19.984 42.6009 20.496C43.8489 20.752 44.7449 21.376 45.2889 22.368C45.8649 23.36 46.1529 24.704 46.1529 26.4L46.0569 42H37.9929V25.872C37.9929 24.72 37.7689 23.984 37.3209 23.664C36.8729 23.344 36.0569 23.184 34.8729 23.184V42H26.5209V0.767999ZM36.8889 16.032C38.0409 16.032 38.6169 14.784 38.6169 12.288C38.6169 11.2 38.5689 10.384 38.4729 9.84C38.3769 9.296 38.2009 8.928 37.9449 8.736C37.6889 8.512 37.3209 8.4 36.8409 8.4H34.9209V16.032H36.8889ZM50.6919 42L54.6759 0.767999H68.6439L72.5799 42H64.7559L64.1799 35.328H59.1879L58.7079 42H50.6919ZM59.8119 28.752H63.5559L61.7319 7.776H61.3479L59.8119 28.752ZM77.4927 0.767999H88.6767C91.6847 0.767999 93.8607 1.504 95.2047 2.976C96.5807 4.448 97.2687 6.848 97.2687 10.176V12C97.2687 15.936 95.8607 18.288 93.0447 19.056C94.7727 19.504 95.9887 20.544 96.6927 22.176C97.3967 23.808 97.7487 25.968 97.7487 28.656C97.7487 33.04 97.0927 36.368 95.7807 38.64C94.4687 40.88 92.1007 42 88.6767 42H77.4927V0.767999ZM87.2367 16.272C87.9407 16.272 88.4207 16.016 88.6767 15.504C88.9327 14.96 89.0607 14.208 89.0607 13.248V9.12C89.0607 7.776 88.4687 7.104 87.2847 7.104H85.5567V16.272H87.2367ZM86.3727 34.752C88.5167 34.752 89.5887 33.728 89.5887 31.68V26.544C89.5887 25.296 89.3967 24.352 89.0127 23.712C88.6607 23.072 88.0207 22.752 87.0927 22.752H85.5567V34.704L86.3727 34.752ZM112.653 42.384C108.909 42.384 106.205 41.456 104.541 39.6C102.877 37.744 102.045 34.752 102.045 30.624V26.592H110.157V31.728C110.157 33.776 110.813 34.8 112.125 34.8C112.861 34.8 113.373 34.592 113.661 34.176C113.949 33.728 114.093 32.992 114.093 31.968C114.093 30.624 113.933 29.52 113.613 28.656C113.293 27.76 112.877 27.024 112.365 26.448C111.885 25.84 111.005 24.912 109.725 23.664L106.173 20.112C103.421 17.424 102.045 14.448 102.045 11.184C102.045 7.664 102.845 4.992 104.445 3.168C106.077 1.312 108.445 0.383998 111.549 0.383998C115.261 0.383998 117.933 1.376 119.565 3.36C121.197 5.312 122.013 8.384 122.013 12.576H113.613L113.565 9.744C113.565 9.2 113.405 8.768 113.085 8.448C112.797 8.128 112.381 7.968 111.837 7.968C111.197 7.968 110.717 8.144 110.397 8.496C110.077 8.848 109.917 9.328 109.917 9.936C109.917 11.28 110.685 12.672 112.221 14.112L117.021 18.72C118.141 19.808 119.069 20.848 119.806 21.84C120.542 22.8 121.134 23.952 121.582 25.296C122.03 26.608 122.253 28.176 122.253 30C122.253 34.064 121.501 37.152 119.997 39.264C118.525 41.344 116.077 42.384 112.653 42.384ZM152.755 42V0.767999H169.267V8.736H161.155V16.752H168.931V24.528H161.155V33.984H169.795V42H152.755ZM174.937 42V0.767999H191.449V8.736H183.337V16.752H191.113V24.528H183.337V33.984H191.977V42H174.937Z" fill="white"/>
    <path d="M127.387 0.767999H138.571C141.579 0.767999 143.755 1.504 145.099 2.976C146.475 4.448 147.163 6.848 147.163 10.176V12C147.163 15.936 145.755 18.288 142.939 19.056C144.667 19.504 145.883 20.544 146.587 22.176C147.291 23.808 147.643 25.968 147.643 28.656C147.643 33.04 146.987 36.368 145.675 38.64C144.363 40.88 141.995 42 138.571 42H127.387V0.767999ZM137.131 16.272C137.835 16.272 138.315 16.016 138.571 15.504C138.827 14.96 138.955 14.208 138.955 13.248V9.12C138.955 7.776 138.363 7.104 137.179 7.104H135.451V16.272H137.131ZM136.267 34.752C138.411 34.752 139.483 33.728 139.483 31.68V26.544C139.483 25.296 139.291 24.352 138.907 23.712C138.555 23.072 137.915 22.752 136.987 22.752H135.451V34.704L136.267 34.752Z" fill="#EC1D2E"/>
</svg>
