<svg width="18" height="19" viewBox="0 0 18 19" fill="none" xmlns="http://www.w3.org/2000/svg">
    <g clip-path="url(#clip0_1376_35)">
        <path d="M8.25 16.25C8.25 16.0483 8.2095 15.854 8.136 15.6763C8.0595 15.4918 7.9485 15.3275 7.8105 15.1895C7.6725 15.0515 7.5075 14.9405 7.32375 14.864C7.146 14.7905 6.95175 14.75 6.75 14.75C6.54825 14.75 6.354 14.7905 6.17625 14.864C5.99175 14.9405 5.8275 15.0515 5.6895 15.1895C5.5515 15.3275 5.4405 15.4925 5.364 15.6763C5.2905 15.854 5.25 16.0483 5.25 16.25C5.25 16.4517 5.2905 16.646 5.364 16.8237C5.4405 17.0082 5.5515 17.1725 5.6895 17.3105C5.8275 17.4485 5.9925 17.5595 6.17625 17.636C6.354 17.7095 6.54825 17.75 6.75 17.75C6.95175 17.75 7.146 17.7095 7.32375 17.636C7.50825 17.5595 7.6725 17.4485 7.8105 17.3105C7.9485 17.1725 8.0595 17.0075 8.136 16.8237C8.2095 16.646 8.25 16.4517 8.25 16.25ZM16.5 16.25C16.5 16.0483 16.4595 15.854 16.386 15.6763C16.3095 15.4918 16.1985 15.3275 16.0605 15.1895C15.9225 15.0515 15.7575 14.9405 15.5738 14.864C15.396 14.7905 15.2018 14.75 15 14.75C14.7983 14.75 14.604 14.7905 14.4263 14.864C14.2418 14.9405 14.0775 15.0515 13.9395 15.1895C13.8015 15.3275 13.6905 15.4925 13.614 15.6763C13.5405 15.854 13.5 16.0483 13.5 16.25C13.5 16.4517 13.5405 16.646 13.614 16.8237C13.6905 17.0082 13.8015 17.1725 13.9395 17.3105C14.0775 17.4485 14.2425 17.5595 14.4263 17.636C14.604 17.7095 14.7983 17.75 15 17.75C15.2018 17.75 15.396 17.7095 15.5738 17.636C15.7583 17.5595 15.9225 17.4485 16.0605 17.3105C16.1985 17.1725 16.3095 17.0075 16.386 16.8237C16.4595 16.646 16.5 16.4517 16.5 16.25ZM5.41575 5.75H16.3433L15.315 11.1432C15.2978 11.228 15.267 11.3067 15.2258 11.378C15.183 11.4507 15.129 11.5153 15.066 11.57C14.997 11.6293 14.9175 11.6765 14.832 11.7072C14.7495 11.7373 14.6595 11.753 14.55 11.7508H7.2495C7.16325 11.7523 7.07925 11.7388 7.00125 11.7133C6.921 11.687 6.84675 11.648 6.78 11.5985C6.70725 11.5437 6.64425 11.4762 6.59625 11.3997C6.54975 11.3255 6.51525 11.2415 6.49575 11.1462L5.41575 5.75ZM0.75 2H3.135L3.759 5.11625C3.762 5.13725 3.7665 5.159 3.77175 5.17925L5.025 11.4395C5.07975 11.7148 5.18325 11.9705 5.3265 12.1978C5.47425 12.4325 5.6625 12.635 5.88 12.7977C6.078 12.9462 6.3 13.0617 6.537 13.139C6.7695 13.2147 7.01775 13.2537 7.27125 13.25H14.5508C14.8178 13.2552 15.09 13.2087 15.3428 13.1173C15.6038 13.0227 15.8415 12.8825 16.047 12.7048C16.2338 12.5435 16.3943 12.3507 16.521 12.1355C16.6448 11.924 16.7355 11.6908 16.7858 11.4417L17.9873 5.14025C18.0645 4.733 17.7983 4.34075 17.391 4.26275C17.3415 4.25375 17.2928 4.24925 17.25 4.25H5.115L4.485 1.103C4.4145 0.7565 4.11225 0.5 3.75 0.5H0.75C0.336 0.5 0 0.836 0 1.25C0 1.664 0.336 2 0.75 2Z" fill="white"/>
    </g>
    <defs>
        <clipPath id="clip0_1376_35">
            <rect width="18" height="18" fill="white" transform="translate(0 0.5)"/>
        </clipPath>
    </defs>
</svg>
