<svg width="12" height="12" viewBox="0 0 12 12" fill="none" xmlns="http://www.w3.org/2000/svg">
    <path d="M11.5 6C11.5 5.256 11.352 4.545 11.0835 3.8965C10.8045 3.223 10.396 2.6175 9.8895 2.111C9.383 1.6045 8.7775 1.1955 8.104 0.917C7.455 0.648 6.744 0.5 6 0.5C5.256 0.5 4.545 0.648 3.8965 0.9165C3.223 1.1955 2.6175 1.604 2.111 2.111C1.6045 2.618 1.1955 3.223 0.9165 3.8965C0.648 4.545 0.5 5.256 0.5 6C0.5 6.744 0.648 7.455 0.9165 8.1035C1.1955 8.777 1.604 9.3825 2.1105 9.889C2.617 10.3955 3.2225 10.8045 3.896 11.083C4.545 11.352 5.256 11.5 6 11.5C6.744 11.5 7.455 11.352 8.1035 11.0835C8.777 10.8045 9.3825 10.396 9.889 9.8895C10.3955 9.383 10.8045 8.7775 11.083 8.104C11.352 7.455 11.5 6.744 11.5 6ZM10.5 6C10.5 6.6105 10.3785 7.1915 10.1595 7.721C9.9315 8.2715 9.5975 8.767 9.182 9.182C8.7665 9.597 8.271 9.9315 7.721 10.1595C7.1915 10.3785 6.6105 10.5 6 10.5C5.3895 10.5 4.8085 10.3785 4.279 10.1595C3.7285 9.9315 3.233 9.5975 2.818 9.182C2.4025 8.7665 2.0685 8.271 1.8405 7.721C1.6215 7.1915 1.5 6.6105 1.5 6C1.5 5.3895 1.6215 4.8085 1.8405 4.279C2.0685 3.7285 2.4025 3.233 2.818 2.818C3.2335 2.403 3.729 2.0685 4.279 1.8405C4.8085 1.6215 5.3895 1.5 6 1.5C6.6105 1.5 7.1915 1.6215 7.721 1.8405C8.2715 2.0685 8.767 2.4025 9.182 2.818C9.5975 3.2335 9.9315 3.729 10.1595 4.279C10.3785 4.8085 10.5 5.3895 10.5 6ZM4.1465 4.8535L5.293 6L4.1465 7.1465C3.951 7.342 3.951 7.6585 4.1465 7.8535C4.342 8.0485 4.6585 8.049 4.8535 7.8535L6 6.707L7.1465 7.8535C7.342 8.049 7.6585 8.049 7.8535 7.8535C8.0485 7.658 8.049 7.3415 7.8535 7.1465L6.707 6L7.8535 4.8535C8.049 4.658 8.049 4.3415 7.8535 4.1465C7.658 3.9515 7.3415 3.951 7.1465 4.1465L6 5.293L4.8535 4.1465C4.658 3.951 4.3415 3.951 4.1465 4.1465C3.9515 4.342 3.951 4.6585 4.1465 4.8535Z" fill="#4E4E4E"/>
</svg>
