<svg width="12" height="11" viewBox="0 0 12 11" fill="none" xmlns="http://www.w3.org/2000/svg">
    <path d="M11.5 5.5C11.5 4.756 11.352 4.045 11.0835 3.3965C10.8045 2.723 10.396 2.1175 9.8895 1.611C9.383 1.1045 8.7775 0.6955 8.104 0.417C7.455 0.148 6.744 0 6 0C5.256 0 4.545 0.148 3.8965 0.4165C3.223 0.6955 2.6175 1.104 2.111 1.611C1.6045 2.118 1.1955 2.723 0.9165 3.3965C0.648 4.045 0.5 4.756 0.5 5.5C0.5 6.244 0.648 6.955 0.9165 7.6035C1.1955 8.277 1.604 8.8825 2.1105 9.389C2.617 9.8955 3.2225 10.3045 3.896 10.583C4.545 10.852 5.256 11 6 11C6.744 11 7.455 10.852 8.1035 10.5835C8.777 10.3045 9.3825 9.896 9.889 9.3895C10.3955 8.883 10.8045 8.2775 11.083 7.604C11.352 6.955 11.5 6.244 11.5 5.5ZM10.5 5.5C10.5 6.1105 10.3785 6.6915 10.1595 7.221C9.9315 7.7715 9.5975 8.267 9.182 8.682C8.7665 9.097 8.271 9.4315 7.721 9.6595C7.1915 9.8785 6.6105 10 6 10C5.3895 10 4.8085 9.8785 4.279 9.6595C3.7285 9.4315 3.233 9.0975 2.818 8.682C2.4025 8.2665 2.0685 7.771 1.8405 7.221C1.6215 6.6915 1.5 6.1105 1.5 5.5C1.5 4.8895 1.6215 4.3085 1.8405 3.779C2.0685 3.2285 2.4025 2.733 2.818 2.318C3.2335 1.903 3.729 1.5685 4.279 1.3405C4.8085 1.1215 5.3895 1 6 1C6.6105 1 7.1915 1.1215 7.721 1.3405C8.2715 1.5685 8.767 1.9025 9.182 2.318C9.5975 2.7335 9.9315 3.229 10.1595 3.779C10.3785 4.3085 10.5 4.8895 10.5 5.5ZM4.1465 4.3535L5.293 5.5L4.1465 6.6465C3.951 6.842 3.951 7.1585 4.1465 7.3535C4.342 7.5485 4.6585 7.549 4.8535 7.3535L6 6.207L7.1465 7.3535C7.342 7.549 7.6585 7.549 7.8535 7.3535C8.0485 7.158 8.049 6.8415 7.8535 6.6465L6.707 5.5L7.8535 4.3535C8.049 4.158 8.049 3.8415 7.8535 3.6465C7.658 3.4515 7.3415 3.451 7.1465 3.6465L6 4.793L4.8535 3.6465C4.658 3.451 4.3415 3.451 4.1465 3.6465C3.9515 3.842 3.951 4.1585 4.1465 4.3535Z" fill="#4E4E4E"/>
</svg>
