<svg width="12" height="15" viewBox="0 0 12 15" fill="none" xmlns="http://www.w3.org/2000/svg">
    <path d="M11.25 13.4463V5.94629C11.25 5.53229 10.914 5.19629 10.5 5.19629C10.086 5.19629 9.75 5.53229 9.75 5.94629V13.4463C9.75 13.8603 10.086 14.1963 10.5 14.1963C10.914 14.1963 11.25 13.8603 11.25 13.4463ZM6.75 13.4463V1.44629C6.75 1.03229 6.414 0.696289 6 0.696289C5.586 0.696289 5.25 1.03229 5.25 1.44629V13.4463C5.25 13.8603 5.586 14.1963 6 14.1963C6.414 14.1963 6.75 13.8603 6.75 13.4463ZM2.25 13.4463V8.94629C2.25 8.53229 1.914 8.19629 1.5 8.19629C1.086 8.19629 0.75 8.53229 0.75 8.94629V13.4463C0.75 13.8603 1.086 14.1963 1.5 14.1963C1.914 14.1963 2.25 13.8603 2.25 13.4463Z" fill="#4E4E4E"/>
</svg>
