<svg width="14" height="14" viewBox="0 0 14 14" fill="none" xmlns="http://www.w3.org/2000/svg">
    <path d="M1.75004 4.62058L6.66579 8.06167C6.86412 8.19875 7.12954 8.20517 7.33487 8.06167L12.25 4.62058V10.5C12.25 10.5782 12.2343 10.6523 12.2063 10.7199C12.1765 10.7911 12.1328 10.8564 12.078 10.9113C12.0231 10.9661 11.9578 11.0098 11.8866 11.0396C11.819 11.0676 11.7449 11.0833 11.6667 11.0833H2.33337C2.25521 11.0833 2.18112 11.0676 2.11346 11.0396C2.04229 11.0098 1.97696 10.9661 1.92212 10.9113C1.86729 10.8564 1.82354 10.7911 1.79379 10.7199C1.76579 10.6523 1.75004 10.5782 1.75004 10.5V4.62058ZM0.583374 3.507V10.5C0.583374 10.7351 0.630624 10.9608 0.715791 11.1667C0.805041 11.382 0.935707 11.5751 1.09671 11.7367C1.25771 11.8983 1.45137 12.0289 1.66662 12.1176C1.87254 12.2028 2.09829 12.25 2.33337 12.25H11.6667C11.9018 12.25 12.1275 12.2028 12.3335 12.1176C12.5487 12.0283 12.7418 11.8977 12.9034 11.7367C13.065 11.5757 13.1956 11.382 13.2843 11.1667C13.3695 10.9608 13.4167 10.7351 13.4167 10.5V3.5C13.4167 3.4965 13.4167 3.493 13.4167 3.49008C13.4155 3.2585 13.3683 3.03683 13.2843 2.83383C13.195 2.61858 13.0644 2.4255 12.9034 2.26392C12.7424 2.10233 12.5487 1.97167 12.3335 1.883C12.1275 1.79725 11.9018 1.75 11.6667 1.75H2.33337C2.09829 1.75 1.87254 1.79725 1.66662 1.88242C1.45137 1.97167 1.25829 2.10233 1.09671 2.26333C0.935124 2.42433 0.805041 2.618 0.715791 2.83325C0.631791 3.03625 0.584541 3.2585 0.583374 3.49008C0.583374 3.493 0.583374 3.4965 0.583374 3.5V3.507ZM12.1882 3.23983L7.00004 6.87108L1.81187 3.23983C1.83987 3.18442 1.87721 3.13308 1.92154 3.08875C1.97696 3.03333 2.04171 2.98958 2.11346 2.96042C2.18112 2.93242 2.25521 2.91667 2.33337 2.91667H11.6667C11.7449 2.91667 11.819 2.93242 11.8866 2.96042C11.9578 2.99017 12.0231 3.03392 12.078 3.08875C12.1223 3.13308 12.1596 3.18442 12.1876 3.23983H12.1882Z" fill="#4E4E4E"/>
</svg>
