<svg width="14" height="14" viewBox="0 0 14 14" fill="none" xmlns="http://www.w3.org/2000/svg">
    <path d="M10.6709 6.58759L7.5833 9.67518V2.91668C7.5833 2.59468 7.32197 2.33334 6.99997 2.33334C6.67797 2.33334 6.41663 2.59468 6.41663 2.91668V9.67518L3.32905 6.58759C3.10097 6.35951 2.73172 6.35951 2.50422 6.58759C2.27672 6.81568 2.27613 7.18493 2.50422 7.41243L6.58755 11.4958C6.64355 11.5518 6.7083 11.5938 6.77713 11.6223C6.84713 11.6509 6.92122 11.6661 6.9953 11.6667C7.07288 11.6673 7.15047 11.6527 7.2228 11.6223C7.29164 11.5938 7.35638 11.5518 7.41238 11.4958L11.4957 7.41243C11.7238 7.18434 11.7238 6.81509 11.4957 6.58759C11.2676 6.36009 10.8984 6.35951 10.6709 6.58759Z" fill="#4E4E4E" />
</svg>
