<svg width="16" height="16" viewBox="0 0 16 16" fill="none" xmlns="http://www.w3.org/2000/svg">
    <path d="M1.25006 0.5C0.836061 0.5 0.500061 0.836 0.500061 1.25V6.5C0.500061 6.914 0.836061 7.25 1.25006 7.25H6.50006C6.91406 7.25 7.25006 6.914 7.25006 6.5V1.25C7.25006 0.836 6.91406 0.5 6.50006 0.5H1.25006ZM2.00006 2H5.75006V5.75H2.00006V2ZM9.50006 0.5C9.08606 0.5 8.75006 0.836 8.75006 1.25V6.5C8.75006 6.914 9.08606 7.25 9.50006 7.25H14.7501C15.1641 7.25 15.5001 6.914 15.5001 6.5V1.25C15.5001 0.836 15.1641 0.5 14.7501 0.5H9.50006ZM10.2501 2H14.0001V5.75H10.2501V2ZM9.50006 8.75C9.08606 8.75 8.75006 9.086 8.75006 9.5V14.75C8.75006 15.164 9.08606 15.5 9.50006 15.5H14.7501C15.1641 15.5 15.5001 15.164 15.5001 14.75V9.5C15.5001 9.086 15.1641 8.75 14.7501 8.75H9.50006ZM10.2501 10.25H14.0001V14H10.2501V10.25ZM1.25006 8.75C0.836061 8.75 0.500061 9.086 0.500061 9.5V14.75C0.500061 15.164 0.836061 15.5 1.25006 15.5H6.50006C6.91406 15.5 7.25006 15.164 7.25006 14.75V9.5C7.25006 9.086 6.91406 8.75 6.50006 8.75H1.25006ZM2.00006 10.25H5.75006V14H2.00006V10.25Z" fill="white"/>
</svg>
