<svg width="18" height="18" viewBox="0 0 18 18" fill="none" xmlns="http://www.w3.org/2000/svg">
    <path d="M2.25006 1.5C1.83606 1.5 1.50006 1.836 1.50006 2.25V7.5C1.50006 7.914 1.83606 8.25 2.25006 8.25H7.50006C7.91406 8.25 8.25006 7.914 8.25006 7.5V2.25C8.25006 1.836 7.91406 1.5 7.50006 1.5H2.25006ZM3.00006 3H6.75006V6.75H3.00006V3ZM10.5001 1.5C10.0861 1.5 9.75006 1.836 9.75006 2.25V7.5C9.75006 7.914 10.0861 8.25 10.5001 8.25H15.7501C16.1641 8.25 16.5001 7.914 16.5001 7.5V2.25C16.5001 1.836 16.1641 1.5 15.7501 1.5H10.5001ZM11.2501 3H15.0001V6.75H11.2501V3ZM10.5001 9.75C10.0861 9.75 9.75006 10.086 9.75006 10.5V15.75C9.75006 16.164 10.0861 16.5 10.5001 16.5H15.7501C16.1641 16.5 16.5001 16.164 16.5001 15.75V10.5C16.5001 10.086 16.1641 9.75 15.7501 9.75H10.5001ZM11.2501 11.25H15.0001V15H11.2501V11.25ZM2.25006 9.75C1.83606 9.75 1.50006 10.086 1.50006 10.5V15.75C1.50006 16.164 1.83606 16.5 2.25006 16.5H7.50006C7.91406 16.5 8.25006 16.164 8.25006 15.75V10.5C8.25006 10.086 7.91406 9.75 7.50006 9.75H2.25006ZM3.00006 11.25H6.75006V15H3.00006V11.25Z" fill="white"/>
</svg>
