<svg width="18" height="18" viewBox="0 0 18 18" fill="none" xmlns="http://www.w3.org/2000/svg">
    <path d="M2.25 1.5C1.836 1.5 1.5 1.836 1.5 2.25V7.5C1.5 7.914 1.836 8.25 2.25 8.25H7.5C7.914 8.25 8.25 7.914 8.25 7.5V2.25C8.25 1.836 7.914 1.5 7.5 1.5H2.25ZM3 3H6.75V6.75H3V3ZM10.5 1.5C10.086 1.5 9.75 1.836 9.75 2.25V7.5C9.75 7.914 10.086 8.25 10.5 8.25H15.75C16.164 8.25 16.5 7.914 16.5 7.5V2.25C16.5 1.836 16.164 1.5 15.75 1.5H10.5ZM11.25 3H15V6.75H11.25V3ZM10.5 9.75C10.086 9.75 9.75 10.086 9.75 10.5V15.75C9.75 16.164 10.086 16.5 10.5 16.5H15.75C16.164 16.5 16.5 16.164 16.5 15.75V10.5C16.5 10.086 16.164 9.75 15.75 9.75H10.5ZM11.25 11.25H15V15H11.25V11.25ZM2.25 9.75C1.836 9.75 1.5 10.086 1.5 10.5V15.75C1.5 16.164 1.836 16.5 2.25 16.5H7.5C7.914 16.5 8.25 16.164 8.25 15.75V10.5C8.25 10.086 7.914 9.75 7.5 9.75H2.25ZM3 11.25H6.75V15H3V11.25Z" fill="#EC1D2E"/>
</svg>
