<svg width="18" height="19" viewBox="0 0 18 19" fill="none" xmlns="http://www.w3.org/2000/svg">
    <path d="M2.25 10.25H15.75C16.164 10.25 16.5 9.914 16.5 9.5C16.5 9.086 16.164 8.75 15.75 8.75H2.25C1.836 8.75 1.5 9.086 1.5 9.5C1.5 9.914 1.836 10.25 2.25 10.25ZM2.25 5.75H15.75C16.164 5.75 16.5 5.414 16.5 5C16.5 4.586 16.164 4.25 15.75 4.25H2.25C1.836 4.25 1.5 4.586 1.5 5C1.5 5.414 1.836 5.75 2.25 5.75ZM2.25 14.75H15.75C16.164 14.75 16.5 14.414 16.5 14C16.5 13.586 16.164 13.25 15.75 13.25H2.25C1.836 13.25 1.5 13.586 1.5 14C1.5 14.414 1.836 14.75 2.25 14.75Z" fill="white"/>
</svg>
