<svg width="16" height="12" viewBox="0 0 16 12" fill="none" xmlns="http://www.w3.org/2000/svg">
    <path d="M5 2.25H14.75C15.164 2.25 15.5 1.914 15.5 1.5C15.5 1.086 15.164 0.75 14.75 0.75H5C4.586 0.75 4.25 1.086 4.25 1.5C4.25 1.914 4.586 2.25 5 2.25ZM5 6.75H14.75C15.164 6.75 15.5 6.414 15.5 6C15.5 5.586 15.164 5.25 14.75 5.25H5C4.586 5.25 4.25 5.586 4.25 6C4.25 6.414 4.586 6.75 5 6.75ZM5 11.25H14.75C15.164 11.25 15.5 10.914 15.5 10.5C15.5 10.086 15.164 9.75 14.75 9.75H5C4.586 9.75 4.25 10.086 4.25 10.5C4.25 10.914 4.586 11.25 5 11.25ZM2 1.5C2 1.086 1.664 0.75 1.25 0.75C0.836 0.75 0.5 1.086 0.5 1.5C0.5 1.914 0.836 2.25 1.25 2.25C1.664 2.25 2 1.914 2 1.5ZM2 6C2 5.586 1.664 5.25 1.25 5.25C0.836 5.25 0.5 5.586 0.5 6C0.5 6.414 0.836 6.75 1.25 6.75C1.664 6.75 2 6.414 2 6ZM2 10.5C2 10.086 1.664 9.75 1.25 9.75C0.836 9.75 0.5 10.086 0.5 10.5C0.5 10.914 0.836 11.25 1.25 11.25C1.664 11.25 2 10.914 2 10.5Z" fill="white"/>
</svg>
