<svg width="18" height="18" viewBox="0 0 18 18" fill="none" xmlns="http://www.w3.org/2000/svg">
    <path d="M6 5.25H15.75C16.164 5.25 16.5 4.914 16.5 4.5C16.5 4.086 16.164 3.75 15.75 3.75H6C5.586 3.75 5.25 4.086 5.25 4.5C5.25 4.914 5.586 5.25 6 5.25ZM6 9.75H15.75C16.164 9.75 16.5 9.414 16.5 9C16.5 8.586 16.164 8.25 15.75 8.25H6C5.586 8.25 5.25 8.586 5.25 9C5.25 9.414 5.586 9.75 6 9.75ZM6 14.25H15.75C16.164 14.25 16.5 13.914 16.5 13.5C16.5 13.086 16.164 12.75 15.75 12.75H6C5.586 12.75 5.25 13.086 5.25 13.5C5.25 13.914 5.586 14.25 6 14.25ZM3 4.5C3 4.086 2.664 3.75 2.25 3.75C1.836 3.75 1.5 4.086 1.5 4.5C1.5 4.914 1.836 5.25 2.25 5.25C2.664 5.25 3 4.914 3 4.5ZM3 9C3 8.586 2.664 8.25 2.25 8.25C1.836 8.25 1.5 8.586 1.5 9C1.5 9.414 1.836 9.75 2.25 9.75C2.664 9.75 3 9.414 3 9ZM3 13.5C3 13.086 2.664 12.75 2.25 12.75C1.836 12.75 1.5 13.086 1.5 13.5C1.5 13.914 1.836 14.25 2.25 14.25C2.664 14.25 3 13.914 3 13.5Z" fill="#EC1D2E"/>
</svg>
