<svg width="14" height="14" viewBox="0 0 14 14" fill="none" xmlns="http://www.w3.org/2000/svg">
    <path d="M12.8333 5.83333C12.8333 5.04408 12.6764 4.29042 12.3911 3.60267C12.0954 2.88867 11.662 2.24642 11.1247 1.70858C10.5875 1.17133 9.94521 0.737917 9.23063 0.442167C8.54288 0.156917 7.78921 0 6.99996 0C6.21071 0 5.45704 0.156917 4.76929 0.442167C4.05471 0.737917 3.41246 1.17133 2.87521 1.70858C2.33796 2.24583 1.90454 2.88808 1.60879 3.60267C1.32354 4.29042 1.16663 5.04408 1.16663 5.83333C1.16663 6.16525 1.19754 6.49133 1.25413 6.811C1.41396 7.714 1.77854 8.56333 2.23529 9.331C2.73638 10.1727 3.35704 10.9317 3.96721 11.5739C4.47879 12.1123 4.98804 12.5743 5.42321 12.9407C5.73121 13.1997 6.00304 13.412 6.21421 13.5701C6.34371 13.6675 6.45104 13.7445 6.52921 13.7999C6.62079 13.8647 6.67679 13.902 6.67679 13.902C6.86988 14.0286 7.12304 14.0356 7.32371 13.902C7.32371 13.902 7.38029 13.8641 7.47129 13.7999C7.54946 13.7445 7.65621 13.6675 7.78629 13.5701C7.99746 13.412 8.26929 13.1997 8.57729 12.9407C9.01246 12.5743 9.52171 12.1123 10.0333 11.5739C10.6435 10.9317 11.2641 10.1727 11.7652 9.331C12.222 8.56333 12.5865 7.714 12.7464 6.811C12.8024 6.49133 12.8333 6.16525 12.8333 5.83333ZM11.6666 5.83333C11.6666 6.09233 11.6427 6.35075 11.5972 6.608C11.4683 7.33717 11.1673 8.0535 10.7619 8.73483C10.3174 9.4815 9.75621 10.1716 9.18688 10.7707C8.71146 11.2712 8.23488 11.7034 7.82538 12.0482C7.53604 12.2914 7.28113 12.4903 7.08571 12.6373C7.05538 12.6601 7.02679 12.6811 6.99996 12.7015C6.97254 12.6817 6.94396 12.6601 6.91421 12.6373C6.71821 12.4903 6.46329 12.2914 6.17454 12.0482C5.76504 11.7034 5.28904 11.2712 4.81304 10.7707C4.24371 10.1716 3.68254 9.4815 3.23804 8.73483C2.83263 8.0535 2.53163 7.33717 2.40271 6.608C2.35721 6.35075 2.33329 6.09233 2.33329 5.83333C2.33329 5.20042 2.45929 4.59783 2.68621 4.04892C2.92304 3.47842 3.26954 2.96392 3.70004 2.53342C4.13054 2.10292 4.64504 1.75583 5.21554 1.51958C5.76446 1.29267 6.36704 1.16667 6.99996 1.16667C7.63288 1.16667 8.23546 1.29267 8.78438 1.51958C9.35488 1.75583 9.86879 2.10233 10.2999 2.53342C10.731 2.9645 11.0775 3.47842 11.3137 4.04892C11.5406 4.59783 11.6666 5.20042 11.6666 5.83333ZM9.33329 5.83333C9.33329 5.51833 9.27029 5.21675 9.15654 4.94083C9.03813 4.655 8.86488 4.39833 8.65021 4.18367C8.43554 3.969 8.17829 3.79517 7.89246 3.67675C7.61654 3.563 7.31496 3.5 6.99996 3.5C6.68496 3.5 6.38338 3.563 6.10746 3.67675C5.82163 3.79517 5.56496 3.96842 5.35029 4.18308C5.13563 4.39775 4.96179 4.655 4.84338 4.94083C4.72963 5.21675 4.66663 5.51833 4.66663 5.83333C4.66663 6.14833 4.72963 6.44992 4.84338 6.72583C4.96179 7.01167 5.13504 7.26833 5.34971 7.483C5.56438 7.69767 5.82104 7.87092 6.10688 7.98933C6.38338 8.10367 6.68496 8.16667 6.99996 8.16667C7.31496 8.16667 7.61654 8.10367 7.89246 7.98992C8.17829 7.8715 8.43496 7.69825 8.64963 7.48358C8.86429 7.26892 9.03754 7.01225 9.15596 6.72642C9.27029 6.44992 9.33329 6.14833 9.33329 5.83333ZM8.16663 5.83333C8.16663 5.99258 8.13513 6.1425 8.07854 6.27958C8.01963 6.42192 7.93271 6.55025 7.82479 6.65875C7.71688 6.76725 7.58796 6.85358 7.44563 6.9125C7.30913 6.9685 7.15921 7 6.99996 7C6.84071 7 6.69079 6.9685 6.55371 6.91192C6.41138 6.853 6.28304 6.76608 6.17454 6.65817C6.06604 6.55025 5.97971 6.42133 5.92079 6.279C5.86479 6.1425 5.83329 5.99258 5.83329 5.83333C5.83329 5.67408 5.86479 5.52417 5.92138 5.38708C5.98029 5.24475 6.06721 5.11642 6.17513 5.00792C6.28304 4.89942 6.41196 4.81308 6.55429 4.75417C6.69079 4.69817 6.84071 4.66667 6.99996 4.66667C7.15921 4.66667 7.30913 4.69817 7.44621 4.75475C7.58854 4.81367 7.71688 4.90058 7.82538 5.0085C7.93388 5.11642 8.02021 5.24533 8.07913 5.38767C8.13513 5.52417 8.16663 5.67408 8.16663 5.83333Z" fill="#4E4E4E"/>
</svg>
