<svg width="14" height="14" viewBox="0 0 14 14" fill="none" xmlns="http://www.w3.org/2000/svg">
    <path d="M6.58775 3.32909L9.67533 6.41667H2.91683C2.59483 6.41667 2.3335 6.678 2.3335 7C2.3335 7.322 2.59483 7.58334 2.91683 7.58334H9.67533L6.58775 10.6709C6.35966 10.899 6.35966 11.2683 6.58775 11.4958C6.81583 11.7233 7.18508 11.7238 7.41258 11.4958L11.4959 7.41242C11.5519 7.35642 11.5939 7.29167 11.6225 7.22284C11.6511 7.15284 11.6662 7.07875 11.6668 7.00467C11.6674 6.92709 11.6528 6.8495 11.6225 6.77717C11.5939 6.70834 11.5519 6.64359 11.4959 6.58759L7.41258 2.50425C7.1845 2.27617 6.81525 2.27617 6.58775 2.50425C6.36025 2.73234 6.35966 3.10159 6.58775 3.32909Z" fill="#4E4E4E"/>
</svg>
