<svg width="18" height="18" viewBox="0 0 18 18" fill="none" xmlns="http://www.w3.org/2000/svg">
    <path d="M12.2197 1.71975L2.09474 11.8447C2.00699 11.9317 1.93724 12.0457 1.90124 12.1777L0.776237 16.3027C0.741737 16.425 0.739487 16.5622 0.776237 16.6972C0.884987 17.097 1.29749 17.3325 1.69724 17.2237L5.82224 16.0987C5.94149 16.0672 6.05849 16.002 6.15524 15.9052L16.2802 5.78025C16.554 5.5065 16.7625 5.18925 16.9027 4.8495C17.0482 4.49775 17.121 4.1235 17.121 3.75C17.121 3.3765 17.0482 3.00225 16.9027 2.6505C16.7625 2.3115 16.554 1.99425 16.2802 1.71975C16.0065 1.44525 15.6892 1.2375 15.3495 1.09725C14.9977 0.950998 14.6235 0.878998 14.25 0.878998C13.8765 0.878998 13.5022 0.951748 13.1505 1.09725C12.8115 1.2375 12.4942 1.446 12.2197 1.71975ZM13.2802 2.78025C13.4122 2.64825 13.5637 2.54925 13.7242 2.4825C13.8915 2.4135 14.0707 2.37825 14.25 2.37825C14.4292 2.37825 14.6085 2.4135 14.7757 2.4825C14.9362 2.54925 15.087 2.6475 15.2197 2.78025C15.3525 2.913 15.4507 3.06375 15.5175 3.22425C15.5865 3.3915 15.621 3.57075 15.621 3.75C15.621 3.92925 15.5857 4.1085 15.5167 4.27575C15.45 4.43625 15.3517 4.587 15.219 4.71975L5.23574 14.7037L2.56874 15.4312L3.29624 12.765L13.2802 2.78025Z" fill="#4E4E4E"/>
</svg>
