<svg width="18" height="19" viewBox="0 0 18 19" fill="none" xmlns="http://www.w3.org/2000/svg">
    <path d="M12.0308 12.392C12.0052 12.4115 11.9805 12.4332 11.9565 12.4572C11.9325 12.4812 11.9115 12.5052 11.8912 12.5315C11.421 12.9845 10.8675 13.3498 10.2563 13.6033C9.63975 13.8583 8.9625 14 8.25 14C7.5375 14 6.86025 13.8582 6.24225 13.6025C5.60025 13.337 5.022 12.947 4.5375 12.4618C4.053 11.9765 3.663 11.399 3.39675 10.757C3.14175 10.1397 3 9.4625 3 8.75C3 8.0375 3.14175 7.36025 3.3975 6.74225C3.663 6.101 4.053 5.522 4.5375 5.0375C5.022 4.553 5.601 4.163 6.24225 3.8975C6.86025 3.64175 7.5375 3.5 8.25 3.5C8.9625 3.5 9.63975 3.64175 10.2577 3.8975C10.8997 4.163 11.478 4.553 11.9625 5.03825C12.447 5.5235 12.837 6.101 13.1033 6.743C13.3583 7.36025 13.5 8.0375 13.5 8.75C13.5 9.4625 13.3582 10.1398 13.1025 10.7577C12.849 11.369 12.4838 11.9225 12.0308 12.3927V12.392ZM16.2803 15.7197L13.524 12.9635C13.9177 12.4715 14.244 11.9233 14.4885 11.3315C14.8185 10.535 15 9.66275 15 8.75C15 7.83725 14.8185 6.965 14.4885 6.1685C14.1465 5.342 13.6448 4.59875 13.023 3.977C12.4012 3.35525 11.658 2.8535 10.8315 2.5115C10.035 2.1815 9.16275 2 8.25 2C7.33725 2 6.465 2.1815 5.6685 2.5115C4.842 2.8535 4.09875 3.35525 3.477 3.977C2.85525 4.59875 2.3535 5.342 2.0115 6.1685C1.6815 6.965 1.5 7.83725 1.5 8.75C1.5 9.66275 1.6815 10.535 2.0115 11.3315C2.3535 12.158 2.85525 12.9012 3.477 13.523C4.09875 14.1448 4.842 14.6465 5.6685 14.9885C6.465 15.3185 7.33725 15.5 8.25 15.5C9.16275 15.5 10.035 15.3185 10.8315 14.9885C11.4225 14.7433 11.9715 14.417 12.4635 14.024L15.2197 16.7803C15.513 17.0735 15.9878 17.0735 16.2803 16.7803C16.5728 16.487 16.5735 16.0122 16.2803 15.7197Z" fill="white"/>
</svg>
