<svg width="14" height="14" viewBox="0 0 14 14" fill="none" xmlns="http://www.w3.org/2000/svg">
    <path d="M13.4167 7.00001C13.4167 6.13201 13.244 5.30251 12.9308 4.54593C12.6053 3.76018 12.1287 3.05376 11.5378 2.46284C10.9468 1.87193 10.2404 1.39476 9.45468 1.06984C8.69751 0.75601 7.86801 0.583344 7.00001 0.583344C6.13201 0.583344 5.30251 0.75601 4.54593 1.06926C3.76018 1.39476 3.05376 1.87134 2.46284 2.46284C1.87193 3.05434 1.39476 3.76018 1.06926 4.54593C0.75601 5.30251 0.583344 6.13201 0.583344 7.00001C0.583344 7.86801 0.75601 8.69751 1.06926 9.45409C1.39476 10.2398 1.87134 10.9463 2.46226 11.5372C3.05318 12.1281 3.75959 12.6053 4.54534 12.9302C5.30251 13.244 6.13201 13.4167 7.00001 13.4167C7.86801 13.4167 8.69751 13.244 9.45409 12.9308C10.2398 12.6053 10.9463 12.1287 11.5372 11.5378C12.1281 10.9468 12.6053 10.2404 12.9302 9.45468C13.244 8.69751 13.4167 7.86801 13.4167 7.00001ZM12.25 7.00001C12.25 7.71226 12.1083 8.39009 11.8528 9.00784C11.5868 9.65009 11.1971 10.2282 10.7123 10.7123C10.2276 11.1965 9.64951 11.5868 9.00784 11.8528C8.39009 12.1083 7.71226 12.25 7.00001 12.25C6.28776 12.25 5.60993 12.1083 4.99218 11.8528C4.34993 11.5868 3.77184 11.1971 3.28768 10.7123C2.80293 10.2276 2.41326 9.64951 2.14726 9.00784C1.89176 8.39009 1.75001 7.71226 1.75001 7.00001C1.75001 6.28776 1.89176 5.60993 2.14726 4.99218C2.41326 4.34993 2.80293 3.77184 3.28768 3.28768C3.77243 2.80351 4.35051 2.41326 4.99218 2.14726C5.60993 1.89176 6.28776 1.75001 7.00001 1.75001C7.71226 1.75001 8.39009 1.89176 9.00784 2.14726C9.65009 2.41326 10.2282 2.80293 10.7123 3.28768C11.1971 3.77243 11.5868 4.35051 11.8528 4.99218C12.1083 5.60993 12.25 6.28776 12.25 7.00001ZM4.66668 7.58334H6.41668V9.33334C6.41668 9.65534 6.67801 9.91668 7.00001 9.91668C7.32201 9.91668 7.58334 9.65534 7.58334 9.33334V7.58334H9.33334C9.65534 7.58334 9.91668 7.32201 9.91668 7.00001C9.91668 6.67801 9.65534 6.41668 9.33334 6.41668H7.58334V4.66668C7.58334 4.34468 7.32201 4.08334 7.00001 4.08334C6.67801 4.08334 6.41668 4.34468 6.41668 4.66668V6.41668H4.66668C4.34468 6.41668 4.08334 6.67801 4.08334 7.00001C4.08334 7.32201 4.34468 7.58334 4.66668 7.58334Z" fill="#4E4E4E"/>
</svg>
