<svg width="14" height="14" viewBox="0 0 14 14" fill="none" xmlns="http://www.w3.org/2000/svg">
    <g clip-path="url(#clip0_7315_1498)">
        <path d="M13.4166 9.87002C13.4213 9.67168 13.3875 9.46635 13.3221 9.27443C13.2545 9.07785 13.1535 8.89585 13.024 8.7366C12.8875 8.5686 12.7201 8.42568 12.5276 8.3166C12.3415 8.2116 12.1339 8.13927 11.9011 8.1066C11.4345 8.04943 10.9124 7.92343 10.3926 7.72977C10.14 7.63702 9.87171 7.6026 9.60863 7.62827C9.41263 7.64752 9.21896 7.69943 9.03696 7.7846C8.86021 7.86743 8.69513 7.98118 8.54813 8.12702L8.12813 8.54702C7.09563 7.89543 6.16813 6.99127 5.45471 5.8701L5.87821 5.4466C6.06605 5.2541 6.20663 5.0231 6.29063 4.77226C6.35305 4.5856 6.38455 4.38726 6.38105 4.18601C6.37755 3.9906 6.3408 3.79401 6.26788 3.59918C6.0993 3.15993 5.96571 2.64018 5.89221 2.08543C5.86246 1.87951 5.79713 1.68585 5.70322 1.50968C5.60638 1.33001 5.4798 1.16843 5.32988 1.0331C5.17005 0.889015 4.98338 0.774098 4.77805 0.696515C4.57971 0.621265 4.36446 0.581015 4.14746 0.583348H2.3998C2.34846 0.583348 2.29363 0.585681 2.24055 0.590348C2.00546 0.611348 1.78438 0.679015 1.58605 0.782848C1.38013 0.890765 1.20046 1.03776 1.05463 1.21218C0.908798 1.3866 0.796798 1.59076 0.727381 1.81243C0.660882 2.02651 0.634048 2.25576 0.655631 2.49493C0.830631 4.28926 1.45188 6.13668 2.53163 7.80443C3.4078 9.21202 4.65963 10.5012 6.20546 11.4829C7.70346 12.4728 9.52113 13.1524 11.5056 13.3677C11.5593 13.3729 11.617 13.3753 11.6736 13.3753C11.9099 13.3741 12.1356 13.3263 12.3427 13.2399C12.5568 13.1501 12.7487 13.0194 12.9091 12.8578C13.0695 12.6963 13.1985 12.5032 13.2865 12.2885C13.3717 12.0814 13.4178 11.8545 13.4166 11.6212V9.87002ZM12.25 9.87002V11.62C12.2505 11.7023 12.2348 11.7775 12.2068 11.8458C12.1776 11.9169 12.1345 11.9817 12.0808 12.0359C12.0271 12.0902 11.9624 12.1339 11.8918 12.1637C11.8241 12.1923 11.7489 12.208 11.669 12.2086C11.648 12.2086 11.6293 12.2074 11.6176 12.2063C9.83263 12.012 8.19171 11.3966 6.84946 10.5093C5.43313 9.60927 4.30671 8.44552 3.5233 7.18785C2.53338 5.65951 1.97455 3.9906 1.81763 2.38235C1.81063 2.30651 1.81996 2.23068 1.84155 2.16068C1.8643 2.0866 1.90163 2.01835 1.95063 1.95943C1.99963 1.90051 2.05971 1.85151 2.12796 1.81593C2.1933 1.7821 2.26621 1.75935 2.34613 1.75235C2.36596 1.7506 2.38346 1.75001 2.39513 1.75001H4.14746C4.22913 1.74943 4.29971 1.76285 4.36505 1.78735C4.43271 1.81301 4.49455 1.85093 4.54821 1.89935C4.59838 1.94485 4.64096 1.9991 4.67363 2.05976C4.70513 2.11868 4.7273 2.18401 4.73721 2.25401C4.81946 2.87935 4.97521 3.48951 5.17821 4.0186C5.20096 4.07985 5.21321 4.1446 5.2138 4.20818C5.21496 4.2741 5.20446 4.33943 5.18346 4.40243C5.15488 4.48701 5.10705 4.56635 5.0423 4.63285L4.30671 5.36843C4.11771 5.55743 4.08563 5.84327 4.21221 6.06902C5.13621 7.6936 6.45163 8.9606 7.93446 9.78952C8.16605 9.91901 8.44896 9.87352 8.63155 9.69268L9.37238 8.95185C9.41963 8.90518 9.47388 8.86785 9.53163 8.84102C9.59113 8.81302 9.6553 8.79552 9.72122 8.7891C9.80988 8.78035 9.90205 8.79202 9.98897 8.8241C10.5851 9.04635 11.1965 9.1951 11.7588 9.26393C11.8235 9.27326 11.8924 9.29718 11.953 9.3316C12.016 9.36718 12.072 9.41502 12.1181 9.47102C12.1619 9.52468 12.1957 9.58593 12.2185 9.65185C12.2406 9.71601 12.2517 9.78485 12.25 9.86885V9.87002Z" fill="#4E4E4E"/>
    </g>
    <defs>
        <clipPath id="clip0_7315_1498">
            <rect width="14" height="14" fill="white"/>
        </clipPath>
    </defs>
</svg>
