<svg width="16" height="18" viewBox="0 0 16 18" fill="none" xmlns="http://www.w3.org/2000/svg">
    <path d="M12.5 5.25V15C12.5 15.1027 12.4797 15.1995 12.4437 15.2865C12.4062 15.378 12.35 15.4605 12.2803 15.5303C12.2105 15.6 12.128 15.6555 12.0365 15.6937C11.9495 15.7297 11.8527 15.75 11.75 15.75H4.25C4.14725 15.75 4.0505 15.7297 3.9635 15.6937C3.872 15.6562 3.7895 15.6 3.71975 15.5303C3.65 15.4605 3.5945 15.378 3.55625 15.2865C3.52025 15.1995 3.5 15.1027 3.5 15V5.25H12.5ZM11.75 3.75V3C11.75 2.69625 11.6892 2.40525 11.579 2.139C11.465 1.863 11.2978 1.6155 11.0907 1.4085C10.8837 1.2015 10.6363 1.03425 10.3603 0.92025C10.0948 0.81075 9.80375 0.75 9.5 0.75H6.5C6.19625 0.75 5.90525 0.81075 5.639 0.921C5.36375 1.035 5.11625 1.20225 4.90925 1.40925C4.70225 1.61625 4.535 1.86375 4.421 2.139C4.31075 2.40525 4.25 2.69625 4.25 3V3.75H1.25C0.836 3.75 0.5 4.086 0.5 4.5C0.5 4.914 0.836 5.25 1.25 5.25H2V15C2 15.3038 2.06075 15.5948 2.171 15.861C2.285 16.137 2.45225 16.3845 2.65925 16.5915C2.86625 16.7985 3.11375 16.9657 3.38975 17.0798C3.65525 17.1893 3.94625 17.25 4.25 17.25H11.75C12.0538 17.25 12.3448 17.1892 12.611 17.079C12.887 16.965 13.1345 16.7978 13.3415 16.5907C13.5485 16.3837 13.7158 16.1362 13.8298 15.8602C13.9393 15.5947 14 15.3038 14 15V5.25H14.75C15.164 5.25 15.5 4.914 15.5 4.5C15.5 4.086 15.164 3.75 14.75 3.75H11.75ZM5.75 3.75V3C5.75 2.89725 5.77025 2.8005 5.80625 2.7135C5.84375 2.622 5.9 2.5395 5.96975 2.46975C6.0395 2.4 6.122 2.3445 6.2135 2.30625C6.3005 2.27025 6.39725 2.25 6.5 2.25H9.5C9.60275 2.25 9.6995 2.27025 9.7865 2.30625C9.878 2.34375 9.9605 2.4 10.0302 2.46975C10.1 2.5395 10.1555 2.622 10.1938 2.7135C10.2297 2.8005 10.25 2.89725 10.25 3V3.75H5.75ZM5.75 8.25V12.75C5.75 13.164 6.086 13.5 6.5 13.5C6.914 13.5 7.25 13.164 7.25 12.75V8.25C7.25 7.836 6.914 7.5 6.5 7.5C6.086 7.5 5.75 7.836 5.75 8.25ZM8.75 8.25V12.75C8.75 13.164 9.086 13.5 9.5 13.5C9.914 13.5 10.25 13.164 10.25 12.75V8.25C10.25 7.836 9.914 7.5 9.5 7.5C9.086 7.5 8.75 7.836 8.75 8.25Z" fill="#4E4E4E"/>
</svg>
