<svg width="18" height="17" viewBox="0 0 18 17" fill="none" xmlns="http://www.w3.org/2000/svg">
    <path d="M15.0997 3.43404C15.4252 3.75954 15.669 4.13229 15.8325 4.52829C16.0035 4.94079 16.089 5.38104 16.089 5.82204C16.089 6.26304 16.0027 6.70328 15.8325 7.11578C15.6682 7.51253 15.4245 7.88453 15.1005 8.20853L8.99999 14.3083L2.90024 8.20853C2.57624 7.88453 2.33249 7.51179 2.16824 7.11504C1.99724 6.70254 1.91174 6.26229 1.91174 5.82129C1.91174 5.38029 1.99724 4.94004 2.16824 4.52754C2.33249 4.13079 2.57624 3.75879 2.90024 3.43404C3.22424 3.10929 3.59699 2.86629 3.99374 2.70204C4.40624 2.53104 4.84649 2.44554 5.28749 2.44554C5.72849 2.44554 6.16874 2.53104 6.58124 2.70204C6.97799 2.86629 7.34999 3.11004 7.67474 3.43404L8.46974 4.22904C8.76299 4.52229 9.23774 4.52229 9.53024 4.22904L10.3267 3.43254C10.6507 3.10854 11.0235 2.86479 11.4202 2.70054C11.8327 2.52954 12.273 2.44404 12.714 2.44404C13.155 2.44404 13.5952 2.53029 14.0077 2.70054C14.4045 2.86479 14.7765 3.10854 15.1005 3.43254L15.0997 3.43404ZM16.1602 2.37354C15.6945 1.90779 15.156 1.55454 14.5807 1.31604C13.9837 1.06854 13.3485 0.944786 12.7132 0.944786C12.078 0.944786 11.4427 1.06779 10.8457 1.31529C10.2705 1.55379 9.73199 1.90629 9.26549 2.37204L8.99999 2.63829L8.73524 2.37354C8.26949 1.90779 7.73099 1.55454 7.15499 1.31604C6.55799 1.06854 5.92199 0.945536 5.28749 0.945536C4.65299 0.945536 4.01699 1.06854 3.41999 1.31604C2.84474 1.55454 2.30624 1.90704 1.83974 2.37354C1.37324 2.84004 1.02074 3.37779 0.782243 3.95379C0.534743 4.55079 0.411743 5.18604 0.411743 5.82129C0.411743 6.45653 0.535493 7.09178 0.782243 7.68878C1.02074 8.26403 1.37324 8.80254 1.83974 9.26903L8.46974 15.899C8.76299 16.1923 9.23774 16.1923 9.53024 15.899L16.1602 9.26903C16.626 8.80328 16.9792 8.26478 17.2177 7.68954C17.4652 7.09254 17.589 6.45729 17.589 5.82204C17.589 5.18679 17.466 4.55154 17.2185 3.95454C16.98 3.37929 16.6275 2.84079 16.1602 2.37354Z" fill="#4E4E4E"/>
</svg>
